<?xml version="1.0" encoding="utf-8"?>
<!-- Generator: Adobe Illustrator 19.1.0, SVG Export Plug-In . SVG Version: 6.00 Build 0)  -->
<svg version="1.1" id="图层_1" xmlns="http://www.w3.org/2000/svg" xmlns:xlink="http://www.w3.org/1999/xlink" x="0px" y="0px"
	 viewBox="0 0 900 600" style="enable-background:new 0 0 900 600;" xml:space="preserve">
<style type="text/css">
	.st0{fill:#F4AA37;}
	.st1{fill:#FFFFFF;}
	.st2{fill:#515151;}
	.st3{fill:none;}
	.st4{font-family:'FZDHTJW--GB1-0';}
	.st5{font-size:12px;}
	.st6{fill:#FC9770;}
	.st7{fill:#F9D970;}
	.st8{fill:#709EF9;}
	.st9{fill:#8BEAA8;}
	.st10{font-size:170px;}
</style>
<g>
	<path class="st0" d="M418.8,459.4l1.7-1.5l5.4-11.1l-5.8-7.2l4.5-11.6l0,0c-0.7-0.1-1.4-0.4-2-0.8c-14.2,8.8-24.2,23.7-26.4,41.1
		h1.5c3.9-5.4,10.2-9,17.4-9C416.4,459.3,417.5,459.3,418.8,459.4"/>
	<path class="st0" d="M460,457.7l4.6-11l-8.7-11.1l5.7-13.6l0,0c-1-0.6-1.7-1.6-1.8-2.8c-2.4-0.3-4.9-0.5-7.4-0.5
		c-2,0-4,0.1-5.9,0.3c-0.3,1.5-1.5,2.6-3,2.9l-5.2,14l6.3,9.7l-4.7,11.9l2,1.8l16.1,0L460,457.7z"/>
	<path class="st0" d="M507.7,465c-2.7-15.5-15.1-29.3-22.4-35.1c-0.7,0.6-1.2,0.7-2.1,0.7c-0.5,0-0.9-0.1-1.3-0.2l0,0l-3.4,8.7
		l5.8,8.2l-3.4,9.5c8.8,0.4,17.3,5.5,21.9,11.6c3.8,5,5.8,13.3,5.8,13.3S509.8,476.7,507.7,465"/>
	<path class="st0" d="M435.9,436.2l5.6-14.4c-0.9-0.3-1.6-0.9-2-1.6c-3.7,0.9-7.3,2.1-10.7,3.7c0,0.1,0,0.3,0,0.4
		c0,1.6-0.9,2.9-2.3,3.5l0,0l-4.2,11.8l5.6,6.7l-7,15.2h-5.1l-1.9,6.7h10.4h8.2c0,0,0,0,0,0.1h0.5l9.1-22.4L435.9,436.2z"/>
	<path class="st0" d="M414.6,463.2l0.5-1.6h-2c-2.2,0-4.1,0.6-5.7,1.6H414.6z"/>
	<path class="st0" d="M404.1,466.4c-0.4,0.6-0.8,1.2-1.1,1.9h0.1h10.1l0.5-1.9H404.1z"/>
	<path class="st0" d="M413.9,465.7l0.6-1.9h-8c-0.7,0.5-1.3,1.2-1.9,1.9H413.9z"/>
	<path class="st0" d="M476.2,439.1l4-10l0,0c-0.5-0.6-0.8-1.4-0.8-2.3c0-0.3,0-0.5,0.1-0.8c-4.1-2.1-8.3-4.2-12.7-5.4
		c-0.7,1.1-1.9,1.9-3.3,1.9c-0.1,0-0.1,0-0.2,0l-5.3,13.1l8.7,10.8l-5.6,15c0,0-2.8,0-5.1,0l-1.9,6.7h10.5h9l4.7-11.6c0,0,0,0,0,0
		l3.6-9.4L476.2,439.1z"/>
	<path class="st0" d="M454.8,463.4l0.5-1.8c-1,0-1.9,0-2,0c-2.3,0-4.3,0.7-5.9,1.8H454.8z"/>
	<path class="st0" d="M454,465.9l0.5-1.9h-8.1c-0.6,0.5-1.2,1.2-1.7,1.9H454z"/>
	<path class="st0" d="M444.2,466.6c-0.4,0.6-0.6,1-1,1.7h10.1l0.5-1.7L444.2,466.6z"/>
	<path class="st1" d="M411.5,453.3c0,0.6-0.5,1.2-1.2,1.2c-0.6,0-1.2-0.5-1.2-1.2s0.5-1.2,1.2-1.2
		C411,452.1,411.5,452.6,411.5,453.3"/>
	<path class="st0" d="M396.2,479.6v-1.4h15.5v1.4h-1.3v2.4h1.7v1.2h-1.7v3.6h-6.1v-1.2h3.5v-2.4h-5.1l-3.1,3.6h-3.5l3.3-3.6h-2.1
		l-1-3.2h2.4l0.8,2h8.4v-2.4H396.2z M411.7,474.6l-2.6-0.6v-0.5h-10.3v0.6l-2.6,0.5v-2.4h6.5l0.3-0.8h2.7l-0.3,0.8h6.4V474.6z
		 M396.2,475.1l7.1,0v2.2l-7.1,0.1V475.1z M404.7,475l7.1,0.1v2.1l-7.1,0V475z"/>
	<polygon class="st0" points="414.2,474.1 416.8,473.4 416.8,485.4 420.7,485.4 420.7,472 423.3,471.4 423.3,485.4 427.3,485.4 
		427.3,474.1 429.8,473.4 429.8,486.7 414.2,486.7 	"/>
	<path class="st0" d="M432.5,483.8v-12h15.4v12h-6.5v2.9h-2.6v-2.9H432.5z M435.1,477.2h3.7v-4.1h-3.3l-0.4,0.4V477.2z M438.8,478.4
		h-3.3l-0.4,0.4v3.8h3.7V478.4z M445.3,473.1h-3.5l-0.4,0.3v3.8h3.9V473.1z M441.4,482.6h3.9v-4.2h-3.6l-0.3,0.3V482.6z"/>
	<path class="st0" d="M450.1,480.5h9v-5l2.4-0.6v5.7h4.2v1.2h-4.2l4.2,2.9v2.2l-5.3-3.3l-10.2,3.3l0.6-2.8l8.4-2.2h-9V480.5z
		 M463.1,473.7h-10.3v1.5l-2.6,0.7v-3.5h6.4l-0.5-1.1h3l0.5,1.1h6.1v3.5l-2.6-0.8V473.7z M455.6,478.1v2.2l-3.5-1.5v-2.4
		L455.6,478.1z M458.6,478.8l-3.6-1.8v-2.3l3.6,1.7V478.8z"/>
	<path class="st0" d="M468.2,483.4l0-1.3l3.4,0v1.3L468.2,483.4z M471.8,485.5l0.4-5.6h-4.3l0-5.8h2.2l-0.6,4.5h1.7l0.6-5.7h-4v-1.2
		h6.6l-0.7,7h1l-0.5,8.1h-6.7V485l1.3,0.6L471.8,485.5z M479.9,473.8l-6.1,2.9v-2.5l6.1-3l5.9,2.8v2.5L479.9,473.8z M484.8,478.6
		l-1.1,6.8h1.1v1.2H475v-1.2h6.1l1.2-6.8H484.8z M475.2,478.7h2.3l1.2,7.1h-2.2L475.2,478.7z M475.9,476h8v1.2h-8V476z M478.3,478.7
		h2.3l0.3,7.1h-2.2L478.3,478.7z"/>
	<path class="st0" d="M493.1,482.5v-0.7l2.6-0.6v1.4h6v1.2h-6v1.8h6.7v1.2h-16v-1.2h6.7v-1.8h-5.9v-1.2H493.1z M489.1,473.7v0.9
		l-2.6,0.5v-2.6h6.5l-0.5-1.1h2.9l0.5,1.1h6.2v2.6l-2.6-0.5v-0.9H489.1z M486.9,476.9v-1.2h15v1.2h-11l-0.7,2.2h8.3l-0.8-1.4h2.9
		l1.7,2.6h-15.2l1.1-3.5H486.9z"/>
	<path class="st0" d="M397.6,494.6v3.2h-1.7v-7l0.7-0.6h5.4v4.5H397.6z M397.6,493.5h3.3v-2.7h-2.6l-0.6,0.5V493.5z"/>
	<path class="st0" d="M411.6,497.7h-2.2l0.4-0.7l-0.5-2.2h-2.7l-0.5,2.2l0.5,0.7h-2.3l1.3-6.6l1.3-1.1h3L411.6,497.7z M409.1,494.1
		l-0.7-2.8h-1.1l-0.6,2.8H409.1z"/>
	<polygon class="st0" points="420.2,497.7 418.9,497.7 415,491.9 415,497.7 413.3,497.7 413.3,490.1 414.9,490.1 418.6,495.4 
		418.6,490.1 420.2,490.1 	"/>
	<polygon class="st0" points="429,497.7 422.3,497.7 422.3,490.7 422.7,490.1 428.9,490.1 428.9,491 424.3,491 424,491.3 424,497.1 
		427.3,497.1 427.3,494.2 425.1,494.2 425.4,493.5 429,493.5 	"/>
	<path class="st0" d="M437.9,497.7H431v-6.9l0.7-0.7h6.2V497.7z M436.2,496.8V491h-3l-0.5,0.5v5.4H436.2z"/>
	<polygon class="st0" points="446.5,497.7 439.9,497.7 439.9,490.1 441.6,490.1 441.6,497.1 446.5,497.1 	"/>
	<rect x="449.4" y="490.1" class="st0" width="1.7" height="7.7"/>
	<polygon class="st0" points="460.9,497.7 459.6,497.7 455.6,492 455.6,497.7 453.9,497.7 453.9,490.1 455.5,490.1 459.2,495.4 
		459.2,490.1 460.9,490.1 	"/>
	<polygon class="st0" points="475.1,497.7 468.5,497.7 468.5,490.1 470.2,490.1 470.2,497.1 475.1,497.1 	"/>
	<path class="st0" d="M492.8,497.7h-6.9v-6.9l0.8-0.8h5.5v3.4h0.7V497.7z M487.5,491.3v2.1h3v-2.7H488L487.5,491.3z M487.5,494.6
		v2.4h3.7v-2.9H488L487.5,494.6z"/>
	<polygon class="st0" points="501.5,497.7 494.8,497.7 494.8,496.7 495.2,497.1 500.1,497.1 500.1,494.2 494.8,494.2 494.8,490.5 
		495.3,490.1 501.5,490.1 501.5,490.8 496.9,490.8 496.5,491 496.5,493.5 501.5,493.5 	"/>
	<path class="st0" d="M484.2,497.7H482l0.4-0.7l-0.5-2.2h-2.7l-0.5,2.2l0.5,0.7H477l1.3-6.6l1.3-1.1h3L484.2,497.7z M481.8,494.1
		l-0.7-2.8H480l-0.6,2.8H481.8z"/>
</g>
<g>
	<g>
		<path class="st2" d="M511.6,340.4h-12c-1.4,0-2.6-1.2-2.6-2.6l0,0c0-1.4,1.2-2.6,2.6-2.6h12c1.4,0,2.6,1.2,2.6,2.6l0,0
			C514.2,339.2,513.1,340.4,511.6,340.4z"/>
		<path class="st2" d="M511.6,351.5h-12c-1.4,0-2.6-1.2-2.6-2.6l0,0c0-1.4,1.2-2.6,2.6-2.6h12c1.4,0,2.6,1.2,2.6,2.6l0,0
			C514.2,350.3,513.1,351.5,511.6,351.5z"/>
	</g>
	<polygon class="st0" points="544.9,342.2 544.9,339.9 536.2,339.9 528.9,333.1 517.9,333.1 517.9,329.6 512.4,329.6 512.4,357.1 
		517.9,357.1 517.9,353.6 528.9,353.6 536.2,346.8 544.9,346.8 544.9,344.5 892.5,344.5 892.5,342.2 	"/>
</g>
<polygon class="st0" points="357.5,344.5 357.5,346.8 366.2,346.8 373.5,353.6 384.5,353.6 384.5,357.1 390,357.1 390,329.6 
	384.5,329.6 384.5,333.1 373.5,333.1 366.2,339.9 357.5,339.9 357.5,342.2 9.9,342.2 9.9,344.5 "/>
<polygon class="st0" points="484.6,362 461.9,357.4 468.1,379.7 451.5,363.5 444.6,385.6 439.4,363.1 421.7,377.9 429.5,356.1 
	406.5,359.1 424.9,345 404,335 427,333 414.8,313.4 435.3,324.2 435.7,301 447,321.2 459.9,302 458.5,325.1 479.8,315.8 
	466.1,334.5 489,338.2 467.4,346.6 "/>
<rect x="429" y="337" class="st3" width="40.8" height="12.8"/>
<text transform="matrix(1 0 0 1 428.9552 347.1737)" class="st1 st4 st5">Ooops</text>
<circle class="st6" cx="211" cy="182" r="8.5"/>
<circle class="st7" cx="288.1" cy="283.9" r="14.1"/>
<circle class="st8" cx="644.6" cy="222.7" r="13.2"/>
<circle class="st6" cx="634.8" cy="232.5" r="9.8"/>
<circle class="st9" cx="674" cy="409" r="9.8"/>
<circle class="st8" cx="727.3" cy="301.5" r="3.9"/>
<circle class="st6" cx="581.8" cy="366.8" r="4.9"/>
<circle class="st8" cx="241.2" cy="394.2" r="4.9"/>
<circle class="st7" cx="313.8" cy="418.8" r="9"/>
<circle class="st6" cx="224.4" cy="404" r="4.9"/>
<rect x="314.8" y="109.9" class="st3" width="292.2" height="174"/>
<text transform="matrix(1 0 0 1 314.7662 254.6782)" class="st0 st4 st10">404</text>
</svg>
