<?xml version="1.0" encoding="utf-8"?>
<!-- Generator: Adobe Illustrator 19.1.0, SVG Export Plug-In . SVG Version: 6.00 Build 0)  -->
<svg version="1.1" xmlns="http://www.w3.org/2000/svg" xmlns:xlink="http://www.w3.org/1999/xlink" x="0px" y="0px"
	 viewBox="0 0 900 600" style="enable-background:new 0 0 900 600;" xml:space="preserve">
<style type="text/css">
	.st0{fill:#F4AA37;}
	.st1{fill:#FFFFFF;}
	.st2{fill:#515151;}
	.st3{fill:#FC9770;}
	.st4{fill:#F9D970;}
	.st5{fill:#709EF9;}
	.st6{fill:#8BEAA8;}
	.st7{fill:none;stroke:#F8B62D;stroke-width:4;stroke-linecap:round;stroke-miterlimit:10;}
	.st8{fill:none;stroke:#F8B62D;stroke-width:4;stroke-linecap:round;stroke-miterlimit:10;stroke-dasharray:11.9342,11.9342;}
	.st9{fill:#DD8F28;}
	.st10{fill:none;}
	.st11{font-family:'FZDHTJW--GB1-0';}
	.st12{font-size:170px;}
	.st13{fill:url(#SVGID_1_);}
</style>
<g id="图层_1">
</g>
<g id="图层_2">
	<g>
		<g>
			<path class="st7" d="M150.6,185c0,0,0.8,2,2.4,5.5"/>
			<path class="st8" d="M157.7,201.4c24.3,54.2,104.4,220.3,149.2,158.7c92.6-127.5-210.3-55.6-115.8,37.1
				c85,83.4,397.1-71.3,458.7-103.1"/>
			<path class="st7" d="M655.1,291.4c3.5-1.8,5.3-2.8,5.3-2.8"/>
		</g>
	</g>
	<g>
		<polygon class="st9" points="675.4,277.6 706,303.2 749.3,261.3 		"/>
		<polygon class="st0" points="676.2,319.6 749.3,261.3 670.4,285.6 		"/>
		<polygon class="st0" points="675.4,277.6 749.3,261.3 682.2,248.2 		"/>
	</g>
	<rect x="303.9" y="109.9" class="st10" width="292.2" height="174"/>
	<text transform="matrix(1 0 0 1 303.9049 254.6782)" class="st0 st11 st12">500</text>
	<g>
		<path class="st0" d="M416.3,461.1l1.7-1.5l5.4-11.1l-5.8-7.2l4.5-11.6l0,0c-0.7-0.1-1.4-0.4-2-0.8c-14.2,8.8-24.2,23.7-26.4,41.1
			h1.5c3.9-5.4,10.2-9,17.4-9C413.9,461,415.1,461,416.3,461.1"/>
		<path class="st0" d="M457.6,459.4l4.6-11l-8.7-11.1l5.7-13.6l0,0c-1-0.6-1.7-1.6-1.8-2.8c-2.4-0.3-4.9-0.5-7.4-0.5
			c-2,0-4,0.1-5.9,0.3c-0.3,1.5-1.5,2.6-3,2.9l-5.2,14l6.3,9.7l-4.7,11.9l2,1.8l16.1,0L457.6,459.4z"/>
		<path class="st0" d="M505.3,466.7c-2.7-15.5-15.1-29.3-22.4-35.1c-0.7,0.6-1.2,0.7-2.1,0.7c-0.5,0-0.9-0.1-1.3-0.2l0,0l-3.4,8.7
			l5.8,8.2l-3.4,9.5c8.8,0.4,17.3,5.5,21.9,11.6c3.8,5,5.8,13.3,5.8,13.3S507.4,478.4,505.3,466.7"/>
		<path class="st0" d="M433.4,437.9l5.6-14.4c-0.9-0.3-1.6-0.9-2-1.6c-3.7,0.9-7.3,2.1-10.7,3.7c0,0.1,0,0.3,0,0.4
			c0,1.6-0.9,2.9-2.3,3.5l0,0l-4.2,11.8l5.6,6.7l-7,15.2h-5.1l-1.9,6.7h10.4h8.2c0,0,0,0,0,0.1h0.5l9.1-22.4L433.4,437.9z"/>
		<path class="st0" d="M412.2,464.9l0.5-1.6h-2c-2.2,0-4.1,0.6-5.7,1.6H412.2z"/>
		<path class="st0" d="M401.6,468.1c-0.4,0.6-0.8,1.2-1.1,1.9h0.1h10.1l0.5-1.9H401.6z"/>
		<path class="st0" d="M411.4,467.4l0.6-1.9h-8c-0.7,0.5-1.3,1.2-1.9,1.9H411.4z"/>
		<path class="st0" d="M473.8,440.8l4-10l0,0c-0.5-0.6-0.8-1.4-0.8-2.3c0-0.3,0-0.5,0.1-0.8c-4.1-2.1-8.3-4.2-12.7-5.4
			c-0.7,1.1-1.9,1.9-3.3,1.9c-0.1,0-0.1,0-0.2,0l-5.3,13.1l8.7,10.8l-5.6,15c0,0-2.8,0-5.1,0l-1.9,6.7h10.5h9l4.7-11.6c0,0,0,0,0,0
			l3.6-9.4L473.8,440.8z"/>
		<path class="st0" d="M452.3,465.1l0.5-1.8c-1,0-1.9,0-2,0c-2.3,0-4.3,0.7-5.9,1.8H452.3z"/>
		<path class="st0" d="M451.6,467.6l0.5-1.9H444c-0.6,0.5-1.2,1.2-1.7,1.9H451.6z"/>
		<path class="st0" d="M441.8,468.3c-0.4,0.6-0.6,1-1,1.7h10.1l0.5-1.7L441.8,468.3z"/>
		<path class="st1" d="M409.1,455c0,0.6-0.5,1.2-1.2,1.2c-0.6,0-1.2-0.5-1.2-1.2c0-0.6,0.5-1.2,1.2-1.2
			C408.5,453.8,409.1,454.3,409.1,455"/>
		<path class="st0" d="M393.8,481.3v-1.4h15.5v1.4h-1.3v2.4h1.7v1.2h-1.7v3.6h-6.1v-1.2h3.5v-2.4h-5.1l-3.1,3.6h-3.5l3.3-3.6h-2.1
			l-1-3.2h2.4l0.8,2h8.4v-2.4H393.8z M409.2,476.3l-2.6-0.6v-0.5h-10.3v0.6l-2.6,0.5v-2.4h6.5l0.3-0.8h2.7l-0.3,0.8h6.4V476.3z
			 M393.7,476.8l7.1,0v2.2l-7.1,0.1V476.8z M402.3,476.7l7.1,0.1v2.1l-7.1,0V476.7z"/>
		<polygon class="st0" points="411.8,475.8 414.3,475.1 414.3,487.1 418.3,487.1 418.3,473.7 420.8,473.1 420.8,487.1 424.8,487.1 
			424.8,475.8 427.4,475.1 427.4,488.4 411.8,488.4 		"/>
		<path class="st0" d="M430,485.5v-12h15.4v12h-6.5v2.9h-2.6v-2.9H430z M432.6,478.9h3.7v-4.1h-3.3l-0.4,0.4V478.9z M436.3,480.1
			H433l-0.4,0.4v3.8h3.7V480.1z M442.8,474.8h-3.5l-0.4,0.3v3.8h3.9V474.8z M438.9,484.3h3.9v-4.2h-3.6l-0.3,0.3V484.3z"/>
		<path class="st0" d="M447.7,482.2h9v-5l2.4-0.6v5.7h4.2v1.2h-4.2l4.2,2.9v2.2l-5.3-3.3l-10.2,3.3l0.6-2.8l8.4-2.2h-9V482.2z
			 M460.7,475.4h-10.3v1.5l-2.6,0.7v-3.5h6.4l-0.5-1.1h3l0.5,1.1h6.1v3.5l-2.6-0.8V475.4z M453.2,479.8v2.2l-3.5-1.5V478
			L453.2,479.8z M456.2,480.5l-3.6-1.8v-2.3l3.6,1.7V480.5z"/>
		<path class="st0" d="M465.7,485.1l0-1.3l3.4,0v1.3L465.7,485.1z M469.3,487.2l0.4-5.6h-4.3l0-5.8h2.2l-0.6,4.5h1.7l0.6-5.7h-4
			v-1.2h6.6l-0.7,7h1l-0.5,8.1H465v-1.8l1.3,0.6L469.3,487.2z M477.4,475.5l-6.1,2.9V476l6.1-3l5.9,2.8v2.5L477.4,475.5z
			 M482.3,480.3l-1.1,6.8h1.1v1.2h-9.8v-1.2h6.1l1.2-6.8H482.3z M472.7,480.4h2.3l1.2,7.1H474L472.7,480.4z M473.4,477.7h8v1.2h-8
			V477.7z M475.8,480.4h2.3l0.3,7.1h-2.2L475.8,480.4z"/>
		<path class="st0" d="M490.6,484.2v-0.7l2.6-0.6v1.4h6v1.2h-6v1.8h6.7v1.2h-16v-1.2h6.7v-1.8h-5.9v-1.2H490.6z M486.7,475.4v0.9
			l-2.6,0.5v-2.6h6.5l-0.5-1.1h2.9l0.5,1.1h6.2v2.6l-2.6-0.5v-0.9H486.7z M484.4,478.6v-1.2h15v1.2h-11l-0.7,2.2h8.3l-0.8-1.4h2.9
			l1.7,2.6h-15.2l1.1-3.5H484.4z"/>
		<path class="st0" d="M395.1,496.3v3.2h-1.7v-7l0.7-0.6h5.4v4.5H395.1z M395.1,495.2h3.3v-2.7h-2.6l-0.6,0.5V495.2z"/>
		<path class="st0" d="M409.1,499.4h-2.2l0.4-0.7l-0.5-2.2h-2.7l-0.5,2.2l0.5,0.7h-2.3l1.3-6.6l1.3-1.1h3L409.1,499.4z M406.7,495.8
			L406,493h-1.1l-0.6,2.8H406.7z"/>
		<polygon class="st0" points="417.8,499.4 416.4,499.4 412.5,493.6 412.5,499.4 410.9,499.4 410.9,491.8 412.4,491.8 416.2,497.1 
			416.2,491.8 417.8,491.8 		"/>
		<polygon class="st0" points="426.5,499.4 419.8,499.4 419.8,492.4 420.3,491.8 426.5,491.8 426.5,492.7 421.8,492.7 421.5,493 
			421.5,498.8 424.8,498.8 424.8,495.9 422.6,495.9 422.9,495.2 426.5,495.2 		"/>
		<path class="st0" d="M435.4,499.4h-6.9v-6.9l0.7-0.7h6.2V499.4z M433.7,498.5v-5.9h-3l-0.5,0.5v5.4H433.7z"/>
		<polygon class="st0" points="444,499.4 437.4,499.4 437.4,491.8 439.1,491.8 439.1,498.8 444,498.8 		"/>
		<rect x="446.9" y="491.8" class="st0" width="1.7" height="7.7"/>
		<polygon class="st0" points="458.4,499.4 457.2,499.4 453.1,493.7 453.1,499.4 451.5,499.4 451.5,491.8 453,491.8 456.8,497.1 
			456.8,491.8 458.4,491.8 		"/>
		<polygon class="st0" points="472.6,499.4 466.1,499.4 466.1,491.8 467.8,491.8 467.8,498.8 472.6,498.8 		"/>
		<path class="st0" d="M490.3,499.4h-6.9v-6.9l0.8-0.8h5.5v3.4h0.7V499.4z M485,493v2.1h3v-2.7h-2.5L485,493z M485,496.3v2.4h3.7
			v-2.9h-3.1L485,496.3z"/>
		<polygon class="st0" points="499.1,499.4 492.3,499.4 492.3,498.4 492.8,498.8 497.7,498.8 497.7,495.9 492.3,495.9 492.3,492.2 
			492.9,491.8 499,491.8 499,492.5 494.4,492.5 494,492.7 494,495.2 499.1,495.2 		"/>
		<path class="st0" d="M481.8,499.4h-2.2l0.4-0.7l-0.5-2.2h-2.7l-0.5,2.2l0.5,0.7h-2.3l1.3-6.6l1.3-1.1h3L481.8,499.4z M479.3,495.8
			l-0.7-2.8h-1.1l-0.6,2.8H479.3z"/>
	</g>
	<polygon class="st3" points="433.1,311.5 429.9,311.6 428.2,314.3 427.1,311.3 424,310.5 426.5,308.5 426.3,305.3 429,307.1 
		432,305.9 431.1,309 	"/>
	<polygon class="st6" points="400.5,347.4 396.2,347.5 393.9,351.1 392.4,347.1 388.3,346 391.7,343.4 391.4,339.1 395,341.5 
		399,339.9 397.8,344 	"/>
	<polygon class="st3" points="171.2,467.7 164.5,467.9 160.9,473.6 158.6,467.3 152.1,465.6 157.4,461.5 157,454.8 162.6,458.5 
		168.8,456.1 166.9,462.5 	"/>
	<polygon class="st5" points="708.5,192.2 705.3,192.3 703.6,195 702.5,192 699.3,191.2 701.9,189.2 701.7,186 704.4,187.8 
		707.4,186.6 706.5,189.7 	"/>
	<polygon class="st5" points="113.7,210.2 110.5,210.3 108.8,213 107.7,210 104.5,209.2 107.1,207.2 106.9,204 109.6,205.8 
		112.6,204.6 111.7,207.7 	"/>
	<polygon class="st4" points="558.5,367.3 553.8,367.5 551.3,371.4 549.7,367 545.1,365.8 548.8,362.9 548.5,358.2 552.4,360.9 
		556.8,359.2 555.5,363.7 	"/>
	<polygon class="st5" points="585.2,405.8 580.5,406 578,410 576.4,405.5 571.8,404.3 575.5,401.5 575.2,396.8 579.1,399.4 
		583.5,397.7 582.2,402.2 	"/>
	<polygon class="st3" points="545.1,178.1 540.4,178.3 537.9,182.3 536.3,177.8 531.7,176.6 535.4,173.8 535.2,169.1 539,171.7 
		543.4,170 542.1,174.5 	"/>
	<linearGradient id="SVGID_1_" gradientUnits="userSpaceOnUse" x1="528.5886" y1="162.2212" x2="415.0622" y2="24.3677">
		<stop  offset="0" style="stop-color:#FC9770"/>
		<stop  offset="1" style="stop-color:#FFFFFF;stop-opacity:0"/>
	</linearGradient>
	<polygon class="st13" points="539,171.7 423.2,31 535.4,173.8 	"/>
</g>
</svg>
